<svg xmlns="http://www.w3.org/2000/svg" viewBox="0 0 570.67 321"><defs><style>.cls-1{fill:#3b9f47;}.cls-2,.cls-3{fill:#97cc7b;}.cls-3{font-size:40px;}.cls-3,.cls-8{font-family:Montserrat-Regular, Montserrat;}.cls-4{letter-spacing:-0.01em;}.cls-5{letter-spacing:0em;}.cls-6{letter-spacing:-0.05em;}.cls-7{letter-spacing:-0.01em;}.cls-8{font-size:20px;}.cls-17,.cls-8{fill:#231f20;}.cls-9{letter-spacing:-0.01em;}.cls-10{letter-spacing:-0.01em;}.cls-11{letter-spacing:0.01em;}.cls-12{letter-spacing:0em;}.cls-13{letter-spacing:-0.05em;}.cls-14{letter-spacing:-0.02em;}.cls-15{letter-spacing:-0.01em;}.cls-16{letter-spacing:-0.01em;}.cls-18{fill:#fff;}</style></defs><g id="Layer_2" data-name="Layer 2"><g id="Layer_1-2" data-name="Layer 1"><path class="cls-1" d="M40.92,48.87H570.67a0,0,0,0,1,0,0V321a0,0,0,0,1,0,0H0a0,0,0,0,1,0,0V89.78A40.92,40.92,0,0,1,40.92,48.87Z" transform="translate(570.67 369.87) rotate(180)"/><path class="cls-2" d="M40.92,48.87H570.67a0,0,0,0,1,0,0V321a0,0,0,0,1,0,0H0a0,0,0,0,1,0,0V89.78A40.92,40.92,0,0,1,40.92,48.87Z" transform="translate(570.67 369.87) rotate(180)"/><path class="cls-1" d="M40.86,0H570.67a0,0,0,0,1,0,0V48.87a0,0,0,0,1,0,0H0a0,0,0,0,1,0,0v-8A40.86,40.86,0,0,1,40.86,0Z"/><text class="cls-3" transform="translate(134.96 39.19)">Clue <tspan class="cls-4" x="101.08" y="0">f</tspan><tspan class="cls-5" x="114.28" y="0">or </tspan><tspan class="cls-6" x="165.88" y="0">W</tspan><tspan x="208.12" y="0">o</tspan><tspan class="cls-7" x="233.2" y="0">r</tspan><tspan x="248.72" y="0">d 1</tspan></text><text class="cls-8" transform="translate(81.21 86.54)"><tspan class="cls-9">4</tspan><tspan class="cls-10" x="13.06" y="0">9</tspan><tspan class="cls-11" x="25.02" y="0">.</tspan><tspan x="29.46" y="0">304</tspan><tspan class="cls-12" x="67.2" y="0">42</tspan><tspan x="91.62" y="0">08599877</tspan><tspan class="cls-13" x="189.62" y="0">7</tspan><tspan x="200.34" y="0">, </tspan><tspan class="cls-14" x="209.82" y="0">-</tspan><tspan x="217.12" y="0">123</tspan><tspan class="cls-15" x="246.98" y="0">.</tspan><tspan x="250.98" y="0">14</tspan><tspan class="cls-12" x="271.42" y="0">4</tspan><tspan x="284.56" y="0">2831216</tspan><tspan class="cls-16" x="357.94" y="0">0</tspan><tspan x="370.97" y="0">308</tspan></text><path class="cls-17" d="M426.14,239.29c-.69-1.34-2.13-4.81-6.11-1.3a10.76,10.76,0,0,0-2.91,4.72,9.28,9.28,0,0,1-7.08,6.48c-5.37,1.11-13.93-2.22-17.36-4.35s-8.7-5.69-11.57-6.8-11.61-8.75-13.51-12.12-4.86-7.83-9.9-6.62-13.42,2.08-17.27-4.12a17.62,17.62,0,0,0-4.11-4.12c-2.13-1.3-2.83-1.62-5-4.81s-5.46-6.76-5.46-8.75,1.72-2.36-1.66-3.93c0,0-.42-.14-1.71-2.87s-7.41-9-16-13.1c-3.1-1.71-5.28-1.94-4.91-5.6s-.74-11.52-3.37-15.41-2.92-5-2.83-7-5.6-10.13-8-13.18-10.23-16.62-10.79-19.67-5.5-4.17-7.4-5.14a7,7,0,0,1-4.21-5c-.51-2.63-3.75-3.51-8.79-2.4s-5.37,3.14-9.49,3.14a24,24,0,0,0-9.49,2.32c-2.17.88-7.12,1.85-9,1.34s-2.41-1-7.13,2.08c0,0-8.56,2.92-14.07,4.63A31.41,31.41,0,0,0,193,127.11c-3.48,4.08-5.48,3.3-4.76,10.17.23,2.17,4.94,6.29-3.33,8.88-3.51,1.24-6.23,6.17-7.53,8s-2.77,5-8.45,4.5c-3.15-.25-3,1.23-3,2.9s1.11,9.32-1.24,17.46-3.57,23.7-3.95,32.7c-1,12.65-1.35,13.83-9.93,18.39s-9.25,6.11-4.5,9.38,5.24,5.25.74,6.79-4.82,1.85-1.42,2.28,2.13,3.84,1.43,4.49-1.57,2.22.28,3.89,3,2.54,3,6,1.53,4.49,5,6.44,3.74,2.63,4.11,3.19,3.75,2.5,8.15.28,10.37-4.26,12.63,1,5.6,10.9,5.65,14.46l0,3.56s4.48,2.32,7.12.33,4.72-.6,6.06,0,12.41.69,20-2.78a49.32,49.32,0,0,1,11.11-1.89c5.09-.1,5-1.58,6-2.46a2.06,2.06,0,0,1,2.08-.51,2,2,0,0,0,1.67-1c.37-.69,4.72-2.87,8.05-2a10.87,10.87,0,0,0,11.34-3.14c3.56-3.94,7.59-3.8,9.12-3.06a5.13,5.13,0,0,0,6-1.76c1.62-2.17,6.29-3.33,7.86-3.42s6.71.92,8,4.95,12.68,6.2,16.11,4.49,9.9-4,12.26-2.59,3.8,1.9,5.83,0,4.4-5.32,6.3-6.06,6.15-4,9.58,2.54,2.31,6.85,6.94,11.89c6.89,5.33,10.13-3.61,11-7s6.8-9.16,12.87-9.21,5.87-.28,6.71-.09.92,1,.88,2.68.66,10,0,12.73a36.83,36.83,0,0,0-.34,9.35c.19,1.15,0,.6-.69.92a1,1,0,0,0-.14,1.81c.69.55,0,1-.51,1.29s-3.15,2.27-3.1,4.82,2.64,4.16,5.32,4.11,6.2,0,9.4-3.61,3.19-4.58,3.33-5.55a10,10,0,0,1,2-4.39c1-1,2.13-4.77.42-7.09-.6-.69-3.19-.37-5-2.4-1.29-1.3-4-1-4.9-1.07s-2.64-.32-2.87-2.17-1-6.06,0-8.89c.55-1.29,2.22-1.25,3.51-1.11s3.06-.41,5.56-4.25,8.24-4.12,10.13-1.72,4.45,2.27,7.45,2.18,9.86-.09,10.74-.37,4.95-.88,6.2-7.45.23-8,1.53-11.66A10,10,0,0,0,426.14,239.29ZM289.33,209.58c0,2.43-1,3.45-1.42,3.51s-.27-.16-1.38.77-3.32,2.24-4.86,1.26-6.65-2.4-10.77-3-2.28-3.26-1.17-3.87,1.11-4.56,0-5.42a2.41,2.41,0,0,1,0-4.06s3.66-2.43,6.83-4.12,5-1.72,7.35-.37C290.47,198.41,289.36,207.15,289.33,209.58Z"/><path class="cls-18" d="M398.05,237.64c-4.17,0-5.11,1.4-5.11,3.89,0,2.26,5.11,12.06,5.11,12.06s5.11-9.8,5.11-12.06C403.16,239,402.23,237.64,398.05,237.64Z"/></g></g></svg>