<svg xmlns="http://www.w3.org/2000/svg" viewBox="0 0 570.67 321"><defs><style>.cls-1{fill:#3b9f47;}.cls-2,.cls-3{fill:#97cc7b;}.cls-3{font-size:40px;}.cls-3,.cls-9{font-family:Montserrat-Regular, Montserrat;}.cls-4{letter-spacing:-0.01em;}.cls-5{letter-spacing:-0.05em;}.cls-6{letter-spacing:0em;}.cls-7{letter-spacing:-0.01em;}.cls-8{letter-spacing:0em;}.cls-9{font-size:30px;fill:#231f20;}.cls-10{letter-spacing:-0.01em;}</style></defs><g id="Layer_2" data-name="Layer 2"><g id="Layer_1-2" data-name="Layer 1"><path class="cls-1" d="M40.92,48.87H570.67a0,0,0,0,1,0,0V321a0,0,0,0,1,0,0H0a0,0,0,0,1,0,0V89.78A40.92,40.92,0,0,1,40.92,48.87Z" transform="translate(570.67 369.87) rotate(180)"/><path class="cls-2" d="M40.92,48.87H570.67a0,0,0,0,1,0,0V321a0,0,0,0,1,0,0H0a0,0,0,0,1,0,0V89.78A40.92,40.92,0,0,1,40.92,48.87Z" transform="translate(570.67 369.87) rotate(180)"/><path class="cls-1" d="M40.86,0H570.67a0,0,0,0,1,0,0V48.87a0,0,0,0,1,0,0H0a0,0,0,0,1,0,0v-8A40.86,40.86,0,0,1,40.86,0Z"/><text class="cls-3" transform="translate(130.82 39.19)">Clue <tspan class="cls-4" x="101.08" y="0">f</tspan><tspan x="114.28" y="0">or </tspan><tspan class="cls-5" x="165.88" y="0">W</tspan><tspan class="cls-6" x="208.12" y="0">o</tspan><tspan class="cls-7" x="233.2" y="0">r</tspan><tspan class="cls-8" x="248.72" y="0">d 2</tspan></text><text class="cls-9" transform="translate(36.02 190.81)">A run with a <tspan class="cls-10" x="190.11" y="0">c</tspan><tspan x="206.76" y="0">hase is called a ____</tspan></text></g></g></svg>